 

 ***************************** TPB IS BENEDICTION TO ME ***************************
 *                                                                                *
 *       *            *            *            *            *            *       *
 *      ***	     ***          ***          ***	    ***          ***      *
 *     *****        *****        *****        *****        *****        *****     *
 *    *******      *******      *******      *******      *******      *******    *
 *   *********    *********    *********    *********    *********    *********   *
 *  *** TPB ***  *** TPB ***  *** TPB ***  *** TPB ***  *** TPB ***  *** TPB ***  *
 *   *********    *********    *********    *********    *********    *********   *
 *    *******      *******      *******      *******      *******      *******    *
 *     *****        *****        *****        *****        *****        *****     *
 *      ***          ***          ***	       ***          ***          ***      *
 *       *            *            *            *            *            *       *
 *	                                                                          *
 ***************************** TPB IS BENEDICTION TO ME ***************************



 Screen Link :---


        http://www.shotpix.com/images/94441314543265349660.jpg



 Torrent Status :---


        http://torrent-stats.info/5ccb/90cb875d.png



 General Info :---


 Format                           : AVI
 Format/Info                      : Audio Video Interleave
 Format profile                   : OpenDML
 File size                        : 1.32 GiB
 Duration                         : 1h 37mn 34sec
 Overall bit rate                 : 1 932 Kbps
 Writing application              : Lavf51.12.1

 Video
 ID                               : 0
 Format                           : xvid
 Codec ID                         : xvid
 Duration                         : 1h 37mn 34sec
 Bit rate                         : 472 Kbps
 Width                            : 1 084 pixels
 Height                           : 442 pixels
 Display aspect ratio             : 2.452
 Frame rate                       : 47.952 fps
 Bits/(Pixel*Frame)               : 0.021
 Stream size                      : 329 MiB (24%)

 Audio
 ID                               : 1
 Format                           : MPEG Audio
 Format version                   : Version 1
 Format profile                   : Layer 3
 Mode                             : Joint stereo
 Codec ID                         : 55
 Codec ID/Hint                    : MP3
 Duration                         : 1h 37mn 34sec
 Bit rate mode                    : Constant
 Bit rate                         : 128 Kbps
 Channel(s)                       : 2 channels
 Sampling rate                    : 44.1 KHz
 Compression mode                 : Lossy
 Stream size                      : 21.0 MiB (2%)
 Alignment                        : Aligned on interleaves
 Interleave, duration             : 29 ms (1.41 video frame)



 ***************************** TPB IS BENEDICTION TO ME ***************************
 *                                                                                *
 *       *            *            *            *            *            *       *
 *      ***	     ***          ***          ***	    ***          ***      *
 *     *****        *****        *****        *****        *****        *****     *
 *    *******      *******      *******      *******      *******      *******    *
 *   *********    *********    *********    *********    *********    *********   *
 *  *** TPB ***  *** TPB ***  *** TPB ***  *** TPB ***  *** TPB ***  *** TPB ***  *
 *   *********    *********    *********    *********    *********    *********   *
 *    *******      *******      *******      *******      *******      *******    *
 *     *****        *****        *****        *****        *****        *****     *
 *      ***          ***          ***	       ***          ***          ***      *
 *       *            *            *            *            *            *       *
 *	                                                                          *
 ***************************** TPB IS BENEDICTION TO ME ***************************

										